<?xml version="1.0" standalone="no"?>
<!DOCTYPE svg PUBLIC "-//W3C//DTD SVG 20010904//EN"
 "http://www.w3.org/TR/2001/REC-SVG-20010904/DTD/svg10.dtd">
<svg version="1.0" xmlns="http://www.w3.org/2000/svg"
 width="295.000000pt" height="40.000000pt" viewBox="0 0 295.000000 40.000000"
 preserveAspectRatio="xMidYMid meet">

<g transform="translate(0.000000,40.000000) scale(0.100000,-0.100000)"
fill="#000000" stroke="none">
<path d="M215 339 c-18 -22 -23 -35 -16 -42 8 -8 21 -1 46 23 19 18 32 37 29
42 -10 16 -33 7 -59 -23z"/>
<path d="M2482 318 c-5 -7 -13 -23 -16 -35 -4 -13 -12 -23 -17 -23 -5 0 -9 -9
-9 -20 0 -11 4 -20 10 -20 5 0 10 -30 12 -67 3 -65 4 -68 28 -68 24 0 25 3 28
68 l3 67 35 0 35 0 -2 -67 c-2 -65 -2 -67 22 -67 23 -1 24 3 27 67 3 59 5 67
22 67 13 0 20 7 20 20 0 13 -7 20 -20 20 -27 0 -25 28 2 32 13 2 24 11 26 21
3 14 -4 17 -36 17 -41 0 -57 -11 -64 -45 -4 -25 -68 -36 -68 -11 0 8 10 16 22
18 13 2 24 11 26 21 3 14 -4 17 -36 17 -22 0 -44 -6 -50 -12z"/>
<path d="M542 203 c3 -110 4 -118 23 -118 18 0 21 8 25 70 l5 69 57 -69 c34
-40 66 -69 78 -70 19 -2 20 4 20 117 l0 118 -25 0 c-24 0 -25 -2 -25 -72 l0
-71 -57 71 c-41 51 -65 72 -81 72 -22 0 -23 -1 -20 -117z"/>
<path d="M1640 300 c-23 -23 -24 -33 -9 -62 9 -16 7 -24 -9 -41 -36 -39 -32
-81 8 -102 35 -18 70 -19 104 -4 19 9 29 9 39 1 11 -9 18 -8 31 7 15 16 15 20
1 31 -11 9 -12 17 -4 31 18 34 -20 57 -39 24 -7 -14 -10 -13 -25 3 -16 18 -16
20 3 37 11 10 20 28 20 40 0 51 -81 74 -120 35z m80 -30 c0 -13 -29 -32 -40
-25 -14 9 -13 32 3 38 15 5 37 -2 37 -13z m-6 -143 c-40 -23 -84 19 -52 51 9
9 18 6 40 -15 24 -23 26 -28 12 -36z"/>
<path d="M1020 285 c0 -9 -7 -18 -15 -21 -8 -4 -15 -15 -15 -25 0 -10 7 -19
15 -19 12 0 15 -13 15 -55 0 -47 3 -57 25 -71 31 -20 78 -12 73 14 -2 9 -12
17 -23 17 -17 0 -21 8 -23 48 -3 42 -1 47 17 47 14 0 21 6 21 20 0 13 -7 20
-20 20 -13 0 -20 7 -20 20 0 15 -7 20 -25 20 -16 0 -25 -6 -25 -15z"/>
<path d="M2100 280 c0 -11 -4 -20 -10 -20 -5 0 -10 -9 -10 -20 0 -11 5 -20 10
-20 6 0 10 -20 10 -45 0 -68 53 -115 99 -86 18 12 9 36 -15 36 -16 0 -20 8
-22 48 -3 42 -1 47 17 47 14 0 21 6 21 20 0 13 -7 20 -20 20 -13 0 -20 7 -20
20 0 16 -7 20 -30 20 -23 0 -30 -4 -30 -20z"/>
<path d="M845 261 c-58 -24 -76 -102 -34 -147 59 -63 169 -24 169 61 0 39 -18
65 -55 81 -38 16 -51 16 -80 5z m73 -53 c7 -7 12 -21 12 -33 0 -12 -5 -26 -12
-33 -17 -17 -65 -15 -72 4 -16 41 1 74 39 74 12 0 26 -5 33 -12z"/>
<path d="M1195 261 c-62 -27 -79 -102 -32 -149 22 -21 37 -27 72 -27 53 0 86
24 61 44 -11 10 -20 10 -37 1 -16 -9 -28 -9 -45 -1 -42 19 -26 31 41 31 62 0
65 1 65 24 0 53 -74 99 -125 77z m56 -41 c31 -17 22 -30 -21 -30 -41 0 -49 7
-28 28 15 15 24 15 49 2z"/>
<path d="M1370 258 c-27 -15 -39 -60 -21 -82 6 -8 29 -16 51 -20 22 -3 40 -11
40 -16 0 -18 -31 -24 -62 -12 -24 9 -30 8 -39 -9 -13 -24 7 -34 72 -34 55 0
79 17 79 56 0 31 -14 41 -73 54 -43 9 -27 30 20 27 29 -1 43 2 46 13 8 18 0
23 -49 30 -24 3 -49 0 -64 -7z"/>
<path d="M1950 257 c-27 -14 -39 -59 -21 -81 6 -8 29 -16 51 -20 22 -3 40 -11
40 -16 0 -18 -31 -24 -62 -12 -24 9 -30 8 -39 -9 -13 -24 7 -34 72 -34 55 0
79 17 79 56 0 31 -14 41 -73 54 -44 9 -27 30 22 27 34 -2 41 1 41 17 0 13 -9
20 -31 25 -43 8 -50 8 -79 -7z"/>
<path d="M2230 210 c0 -72 21 -116 58 -125 18 -3 40 -1 53 5 12 7 24 8 28 4 3
-5 15 -9 26 -9 18 0 20 8 23 88 l3 87 -30 0 c-30 0 -30 0 -33 -62 -3 -63 -3
-63 -33 -63 -30 0 -30 0 -33 63 -3 61 -3 62 -32 62 -29 0 -30 -1 -30 -50z"/>
<path d="M487 74 c-9 -10 2 -24 18 -24 9 0 12 6 9 15 -6 16 -17 19 -27 9z"/>
</g>
</svg>
